<?xml version="1.0" standalone="no"?>
<!DOCTYPE svg PUBLIC "-//W3C//DTD SVG 20010904//EN"
 "http://www.w3.org/TR/2001/REC-SVG-20010904/DTD/svg10.dtd">
<svg version="1.0" xmlns="http://www.w3.org/2000/svg"
 width="2133.000000pt" height="2133.000000pt" viewBox="0 0 2133.000000 2133.000000"
 preserveAspectRatio="xMidYMid meet">
<metadata>
Created by potrace 1.14, written by Peter Selinger 2001-2017
</metadata>
<g transform="translate(0.000000,2133.000000) scale(0.100000,-0.100000)"
fill="#000000" stroke="none">
<path d="M40 10665 l0 -10625 10625 0 10625 0 0 10625 0 10625 -10625 0
-10625 0 0 -10625z m20832 0 l3 -10205 -10207 0 -10208 0 0 10208 0 10207
10205 -2 10205 -3 2 -10205z"/>
<path d="M3015 18088 c-3 -7 -38 -107 -79 -223 -41 -115 -268 -754 -506 -1420
-237 -665 -523 -1466 -635 -1780 -112 -313 -341 -957 -510 -1430 -169 -473
-329 -922 -356 -998 l-48 -137 656 2 656 3 207 615 208 615 1098 3 c604 1
1101 -1 1105 -5 7 -7 389 -1214 389 -1228 0 -3 306 -5 680 -5 374 0 680 2 680
4 0 5 -20 62 -735 2081 -285 803 -555 1566 -600 1695 -46 129 -133 377 -195
550 -61 173 -140 396 -175 495 -35 99 -111 315 -170 480 -58 165 -135 381
-170 480 -35 99 -67 188 -70 198 -7 16 -50 17 -716 17 -559 0 -711 -3 -714
-12z m875 -1903 c396 -1249 561 -1771 566 -1792 l6 -23 -756 0 c-416 0 -756 3
-756 7 0 4 27 88 59 188 104 316 588 1793 646 1974 31 95 61 169 65 165 5 -5
81 -238 170 -519z"/>
<path d="M7220 15100 l0 -3000 620 0 620 0 0 3000 0 3000 -620 0 -620 0 0
-3000z"/>
<path d="M9640 18085 c0 -8 0 -1354 0 -2990 0 -1636 0 -2979 0 -2985 0 -13
2527 -13 2747 0 369 22 637 88 918 225 481 233 848 648 1098 1240 153 363 246
764 288 1235 16 177 16 663 0 815 -65 631 -187 1042 -423 1430 -325 533 -786
863 -1368 979 -308 61 -263 60 -1827 63 -1286 3 -1433 2 -1433 -12z m2581
-1035 c233 -24 403 -67 552 -141 141 -70 253 -163 333 -275 119 -166 232 -483
278 -779 55 -350 64 -859 21 -1180 -69 -522 -234 -914 -495 -1176 -145 -147
-285 -232 -481 -294 -177 -56 -226 -59 -929 -59 l-645 -1 -3 1958 -2 1957 634
0 c365 0 678 -4 737 -10z"/>
<path d="M15267 18068 c11 -18 263 -422 560 -898 297 -476 638 -1022 758
-1215 120 -192 280 -450 357 -572 87 -140 137 -227 132 -235 -15 -25 -1115
-1769 -1314 -2083 -367 -580 -592 -939 -597 -951 -4 -12 101 -14 723 -12 l728
3 256 435 c141 239 393 667 560 950 167 283 322 546 343 583 22 37 43 64 47
60 4 -4 209 -370 455 -813 247 -443 501 -898 564 -1012 l116 -208 758 0 c665
0 758 2 753 15 -3 8 -150 245 -327 527 -639 1018 -891 1420 -1144 1823 -142
226 -305 485 -362 577 l-104 166 897 1414 c493 777 906 1428 916 1446 l20 32
-725 0 -725 0 -139 -247 c-77 -137 -283 -502 -458 -813 -175 -311 -358 -635
-406 -720 -48 -85 -91 -153 -96 -152 -4 2 -246 438 -537 968 l-529 964 -749 0
-750 0 19 -32z"/>
<path d="M2695 9298 c-3 -7 -4 -1356 -3 -2998 l3 -2985 2113 -3 2112 -2 0 540
0 540 -1485 0 -1485 0 0 2460 0 2460 -625 0 c-491 0 -627 -3 -630 -12z"/>
<path d="M9495 9293 c-8 -20 -349 -977 -662 -1853 -112 -316 -342 -960 -510
-1430 -616 -1728 -866 -2428 -914 -2563 l-48 -137 656 2 656 3 207 615 208
615 1098 3 c604 1 1101 -1 1105 -5 7 -7 389 -1214 389 -1228 0 -3 306 -5 680
-5 374 0 680 2 680 4 0 4 -807 2287 -1020 2886 -32 91 -109 307 -170 480 -61
173 -138 389 -170 480 -32 91 -212 599 -400 1130 -188 531 -347 977 -352 993
l-10 27 -708 0 c-665 0 -708 -1 -715 -17z m905 -1993 c428 -1349 540 -1704
540 -1712 0 -4 -340 -8 -755 -8 -415 0 -755 3 -755 6 0 7 171 531 485 1489
107 325 213 650 236 723 25 75 46 127 50 120 4 -7 93 -285 199 -618z"/>
<path d="M13820 6310 l0 -3000 1358 0 c1599 0 1781 6 2124 69 220 41 353 83
520 166 121 60 168 90 288 186 146 116 251 234 364 406 122 187 206 389 253
612 25 117 27 144 27 371 1 277 -13 378 -80 579 -87 257 -243 476 -453 630
-79 58 -328 191 -358 191 -30 0 -8 21 75 68 280 163 448 356 545 627 66 185
96 455 77 683 -32 389 -160 683 -405 927 -249 249 -578 394 -1050 462 -109 15
-271 17 -1702 20 l-1583 4 0 -3001z m2906 1937 c377 -56 532 -156 612 -395 24
-70 26 -91 26 -237 0 -147 -3 -166 -27 -238 -73 -212 -215 -322 -507 -395
l-105 -26 -857 -3 -858 -4 0 661 0 661 803 -4 c679 -3 819 -6 913 -20z m129
-2320 c340 -70 534 -222 609 -477 54 -182 37 -460 -40 -642 -85 -203 -256
-344 -488 -403 -189 -48 -238 -50 -1106 -50 l-815 0 -3 798 -2 798 882 -4
c769 -3 893 -6 963 -20z"/>
</g>
</svg>
